<svg width="80" height="80" viewBox="0 0 80 80" fill="none" xmlns="http://www.w3.org/2000/svg">
<g opacity="0.1">
<path d="M76.7726 0H3.22836C2.34836 0 1.63477 0.713594 1.63477 1.59359V66.1489C1.63477 73.7864 7.84836 79.9998 15.4857 79.9998C20.7977 79.9998 25.4202 76.9933 27.743 72.593C30.0659 76.9934 34.6884 80 40.0004 80C45.3124 80 49.9349 76.9934 52.2577 72.5931C54.5807 76.9934 59.203 80 64.5151 80C72.1526 80 78.366 73.7864 78.366 66.1491V1.59359C78.3662 0.713594 77.6526 0 76.7726 0ZM26.1495 66.1491C26.1495 72.0291 21.3657 76.8128 15.4857 76.8128C9.6057 76.8128 4.82195 72.0291 4.82195 66.1491V53.5508C7.36461 56.6163 11.2009 58.5723 15.4857 58.5723C19.7705 58.5723 23.6068 56.6166 26.1495 53.5508V66.1491ZM26.1495 44.6305V44.7211C26.1495 50.6011 21.3657 55.3848 15.4857 55.3848C9.6057 55.3848 4.82195 50.6011 4.82195 44.7211V44.6305V31.9416C7.36461 35.0072 11.2009 36.9631 15.4857 36.9631C19.7705 36.9631 23.6068 35.0073 26.1495 31.9416V44.6305ZM26.1495 23.112C26.1495 28.992 21.3657 33.7758 15.4857 33.7758C9.6057 33.7758 4.82195 28.992 4.82195 23.112V3.18719H26.1495V23.112ZM50.6641 66.1491C50.6641 72.0291 45.8804 76.8128 40.0004 76.8128C34.1204 76.8128 29.3366 72.0291 29.3366 66.1491V53.5508C31.8793 56.6163 35.7155 58.5723 40.0004 58.5723C44.2852 58.5723 48.1215 56.6166 50.6641 53.5508V66.1491ZM50.6641 44.6306V44.7213C50.6641 50.6013 45.8804 55.385 40.0004 55.385C34.1204 55.385 29.3366 50.6013 29.3366 44.7213V44.6306V31.9417C31.8793 35.0072 35.7155 36.9633 40.0004 36.9633C44.2852 36.9633 48.1215 35.0075 50.6641 31.9417V44.6306ZM50.6641 23.112C50.6641 28.992 45.8804 33.7758 40.0004 33.7758C34.1204 33.7758 29.3366 28.992 29.3366 23.112V3.18719H50.6641V23.112ZM75.1788 66.1491C75.1788 72.0291 70.3951 76.8128 64.5151 76.8128C58.6351 76.8128 53.8513 72.0291 53.8513 66.1491V53.5508C56.394 56.6163 60.2302 58.5723 64.5151 58.5723C68.7999 58.5723 72.6362 56.6166 75.1788 53.5508V66.1491ZM75.1788 44.6306V44.7213C75.1788 50.6013 70.3951 55.385 64.5151 55.385C58.6351 55.385 53.8513 50.6013 53.8513 44.7213V44.6306V31.9417C56.394 35.0072 60.2302 36.9633 64.5151 36.9633C68.7999 36.9633 72.6362 35.0075 75.1788 31.9417V44.6306ZM75.1788 23.112C75.1788 28.992 70.3951 33.7758 64.5151 33.7758C58.6351 33.7758 53.8513 28.992 53.8513 23.112V3.18719H75.1788V23.112Z" fill="white"/>
<path d="M72.1912 4.94824C71.3112 4.94824 70.5977 5.66184 70.5977 6.54184V13.8725C70.5977 14.7525 71.3112 15.4661 72.1912 15.4661C73.0712 15.4661 73.7848 14.7525 73.7848 13.8725V6.54184C73.7848 5.66184 73.0712 4.94824 72.1912 4.94824Z" fill="white"/>
<path d="M72.1912 17.0596C71.3112 17.0596 70.5977 17.7732 70.5977 18.6532V20.2468C70.5977 21.1268 71.3112 21.8404 72.1912 21.8404C73.0712 21.8404 73.7848 21.1268 73.7848 20.2468V18.6532C73.7848 17.7733 73.0712 17.0596 72.1912 17.0596Z" fill="white"/>
</g>
</svg>
