<svg width="68" height="16" viewBox="0 0 68 16" fill="none" xmlns="http://www.w3.org/2000/svg">
<path d="M67.7071 8.7071C68.0976 8.31658 68.0976 7.68341 67.7071 7.29289L61.3431 0.928927C60.9526 0.538402 60.3195 0.538403 59.9289 0.928927C59.5384 1.31945 59.5384 1.95262 59.9289 2.34314L65.5858 7.99999L59.9289 13.6568C59.5384 14.0474 59.5384 14.6805 59.9289 15.0711C60.3195 15.4616 60.9526 15.4616 61.3431 15.0711L67.7071 8.7071ZM8.74228e-08 9L0.985294 9L0.985294 7L-8.74228e-08 7L8.74228e-08 9ZM2.95588 9L4.92647 9L4.92647 7L2.95588 7L2.95588 9ZM6.89706 9L8.86765 9L8.86765 7L6.89706 7L6.89706 9ZM10.8382 9L12.8088 9L12.8088 7L10.8382 7L10.8382 9ZM14.7794 9L16.75 9L16.75 7L14.7794 7L14.7794 9ZM18.7206 9L20.6912 9L20.6912 7L18.7206 7L18.7206 9ZM22.6618 9L24.6324 9L24.6324 7L22.6618 7L22.6618 9ZM26.6029 9L28.5735 9L28.5735 7L26.6029 7L26.6029 9ZM30.5441 9L32.5147 9L32.5147 7L30.5441 7L30.5441 9ZM34.4853 9L36.4559 9L36.4559 7L34.4853 7L34.4853 9ZM38.4265 9L40.3971 9L40.3971 7L38.4265 7L38.4265 9ZM42.3676 9L44.3382 9L44.3382 7L42.3676 7L42.3676 9ZM46.3088 9L48.2794 9L48.2794 7L46.3088 7L46.3088 9ZM50.25 9L52.2206 9L52.2206 7L50.25 7L50.25 9ZM54.1912 9L56.1618 9L56.1618 7L54.1912 7L54.1912 9ZM58.1324 8.99999L60.1029 8.99999L60.1029 6.99999L58.1324 6.99999L58.1324 8.99999ZM62.0735 8.99999L64.0441 8.99999L64.0441 6.99999L62.0735 6.99999L62.0735 8.99999ZM66.0147 8.99999L67 8.99999L67 6.99999L66.0147 6.99999L66.0147 8.99999Z" fill="#E63A27"/>
</svg>
